<svg width="270" height="64" viewBox="0 0 270 64" fill="none" xmlns="http://www.w3.org/2000/svg">
<path d="M145.536 17.9981C143.61 17.9981 141.586 17.6331 140 16.754V1.24411C141.561 0.389878 143.585 2.85548e-05 145.536 2.85548e-05C147.487 2.85548e-05 149.463 0.365035 151.023 1.24411V7.19505H147.096V3.14558C146.633 2.95066 146.071 2.87804 145.511 2.87804C144.951 2.87804 144.437 2.95066 143.95 3.14558V14.8525C144.413 15.0475 144.95 15.1201 145.511 15.1201C146.073 15.1201 146.608 15.0475 147.096 14.8525V10.805H151.023V16.7559C149.486 17.6101 147.463 17.9752 145.536 18V17.9981Z" fill="#F7DD43"/>
<path d="M158.388 17.9981C156.315 17.9981 154.316 17.5585 152.729 16.6565V1.3167C154.291 0.439536 156.292 0 158.388 0C160.484 0 162.436 0.414693 163.997 1.3167V16.6565C162.46 17.5585 160.437 17.9732 158.388 17.9981ZM160.072 3.19524C159.609 3.00031 159.047 2.90285 158.365 2.90285C157.683 2.90285 157.146 3.00031 156.681 3.19524V14.7799C157.144 14.9997 157.706 15.0971 158.365 15.0971C159.024 15.0971 159.584 14.9997 160.072 14.7799V3.19524Z" fill="#F7DD43"/>
<path d="M170.85 11.4127H169.801V17.7783H165.826V0.219779H170.85C173.24 0.219779 175.044 0.707092 176.459 1.70656V9.92589C175.069 10.9024 173.239 11.4127 170.85 11.4127ZM172.509 3.24303C172.143 2.97548 171.654 2.85318 170.825 2.85318H169.751V8.77927H170.825C171.629 8.77927 172.117 8.65697 172.509 8.41427V3.24303Z" fill="#F7DD43"/>
<path d="M184.773 17.7783V11.4127H181.848V17.7783H177.898V1.29185C179.337 0.437625 181.36 0 183.312 0C185.263 0 187.262 0.439537 188.701 1.29185V17.7783H184.773ZM184.773 3.04809C184.359 2.85316 183.847 2.7557 183.31 2.7557C182.773 2.7557 182.26 2.85316 181.846 3.04809V8.63211H184.772V3.04809H184.773Z" fill="#F7DD43"/>
<path d="M84.7959 10.6387L89.0547 12.1289V14.1045L83.0801 11.623V10.1943L84.7959 10.6387ZM89.0547 9.42871L84.7959 10.9463L83.0801 11.377V9.94141L89.0547 7.45996V9.42871ZM90.5928 4.5H92.7256V13.2432L92.5068 15H90.5928V4.5ZM97.3398 11.2197V11.3633C97.3398 11.9238 97.2806 12.4342 97.1621 12.8945C97.0482 13.3548 96.8727 13.7536 96.6357 14.0908C96.3988 14.4235 96.1003 14.681 95.7402 14.8633C95.3802 15.0456 94.9564 15.1367 94.4688 15.1367C94.0176 15.1367 93.6302 15.0433 93.3066 14.8564C92.9831 14.665 92.7119 14.4007 92.4932 14.0635C92.2744 13.7262 92.0967 13.332 91.96 12.8809C91.8278 12.4297 91.7253 11.9443 91.6523 11.4248V11.1787C91.7253 10.6592 91.8278 10.1738 91.96 9.72266C92.0967 9.27148 92.2744 8.87728 92.4932 8.54004C92.7119 8.2028 92.9808 7.94076 93.2998 7.75391C93.6234 7.5625 94.0085 7.4668 94.4551 7.4668C94.9473 7.4668 95.3734 7.56022 95.7334 7.74707C96.098 7.93392 96.3988 8.19596 96.6357 8.5332C96.8727 8.86589 97.0482 9.26237 97.1621 9.72266C97.2806 10.1784 97.3398 10.6774 97.3398 11.2197ZM95.207 11.3633V11.2197C95.207 10.9372 95.1865 10.6706 95.1455 10.4199C95.109 10.1693 95.043 9.94824 94.9473 9.75684C94.8561 9.56087 94.7262 9.4082 94.5576 9.29883C94.3936 9.1849 94.1816 9.12793 93.9219 9.12793C93.6667 9.12793 93.4502 9.17122 93.2725 9.25781C93.0947 9.3444 92.9512 9.46745 92.8418 9.62695C92.7324 9.7819 92.6527 9.97103 92.6025 10.1943C92.5524 10.4176 92.5251 10.666 92.5205 10.9395V11.6641C92.5251 12.0286 92.5729 12.3477 92.6641 12.6211C92.7552 12.8945 92.9033 13.1064 93.1084 13.2568C93.3135 13.4027 93.5892 13.4756 93.9355 13.4756C94.1999 13.4756 94.4141 13.4255 94.5781 13.3252C94.7467 13.2204 94.8743 13.0745 94.9609 12.8877C95.0521 12.7008 95.1159 12.4775 95.1523 12.2178C95.1888 11.958 95.207 11.6732 95.207 11.3633ZM100.614 9.32617V15H98.4814V7.60352H100.484L100.614 9.32617ZM102.822 7.54883L102.788 9.53809C102.697 9.52441 102.578 9.51302 102.433 9.50391C102.287 9.49023 102.161 9.4834 102.057 9.4834C101.783 9.4834 101.546 9.51758 101.346 9.58594C101.15 9.64974 100.986 9.74544 100.854 9.87305C100.726 10.0007 100.63 10.1602 100.566 10.3516C100.503 10.5384 100.471 10.7549 100.471 11.001L100.067 10.8027C100.067 10.3151 100.115 9.86849 100.211 9.46289C100.307 9.05729 100.446 8.70638 100.628 8.41016C100.81 8.10938 101.034 7.87695 101.298 7.71289C101.562 7.54883 101.863 7.4668 102.2 7.4668C102.31 7.4668 102.421 7.47363 102.535 7.4873C102.649 7.50098 102.745 7.52148 102.822 7.54883ZM107.396 13.2363V10.0645C107.396 9.84115 107.361 9.64974 107.293 9.49023C107.225 9.33073 107.118 9.2054 106.972 9.11426C106.826 9.02311 106.637 8.97754 106.404 8.97754C106.208 8.97754 106.037 9.01172 105.892 9.08008C105.75 9.14844 105.641 9.24642 105.563 9.37402C105.491 9.50163 105.454 9.65885 105.454 9.8457H103.321C103.321 9.51302 103.396 9.20312 103.547 8.91602C103.697 8.62891 103.911 8.37598 104.189 8.15723C104.472 7.93848 104.809 7.76986 105.201 7.65137C105.593 7.52832 106.033 7.4668 106.521 7.4668C107.099 7.4668 107.614 7.56478 108.065 7.76074C108.521 7.95215 108.881 8.24154 109.146 8.62891C109.41 9.01172 109.542 9.49479 109.542 10.0781V13.1748C109.542 13.6214 109.567 13.9723 109.617 14.2275C109.672 14.4782 109.749 14.6969 109.85 14.8838V15H107.696C107.596 14.7858 107.521 14.5215 107.471 14.207C107.421 13.888 107.396 13.5645 107.396 13.2363ZM107.662 10.4883L107.676 11.6641H106.616C106.379 11.6641 106.174 11.6937 106.001 11.7529C105.832 11.8122 105.696 11.8942 105.591 11.999C105.486 12.0993 105.409 12.2178 105.358 12.3545C105.313 12.4867 105.29 12.6325 105.29 12.792C105.29 12.9424 105.326 13.0791 105.399 13.2021C105.472 13.3206 105.573 13.4141 105.7 13.4824C105.828 13.5508 105.976 13.585 106.145 13.585C106.423 13.585 106.66 13.5303 106.855 13.4209C107.056 13.3115 107.211 13.1794 107.32 13.0244C107.43 12.8649 107.484 12.7168 107.484 12.5801L107.997 13.4688C107.915 13.651 107.815 13.8402 107.696 14.0361C107.578 14.2275 107.427 14.4076 107.245 14.5762C107.063 14.7402 106.842 14.8747 106.582 14.9795C106.327 15.0843 106.019 15.1367 105.659 15.1367C105.194 15.1367 104.773 15.0433 104.395 14.8564C104.016 14.665 103.713 14.403 103.485 14.0703C103.262 13.7376 103.15 13.3548 103.15 12.9219C103.15 12.5345 103.221 12.1904 103.362 11.8896C103.504 11.5889 103.715 11.3337 103.998 11.124C104.285 10.9144 104.645 10.7572 105.078 10.6523C105.511 10.543 106.017 10.4883 106.596 10.4883H107.662ZM114.881 12.9424C114.881 12.8057 114.838 12.6849 114.751 12.5801C114.669 12.4753 114.519 12.3796 114.3 12.293C114.086 12.2064 113.783 12.1198 113.391 12.0332C113.021 11.9557 112.677 11.8555 112.358 11.7324C112.039 11.6048 111.761 11.4521 111.524 11.2744C111.287 11.0921 111.103 10.8779 110.971 10.6318C110.839 10.3812 110.772 10.0964 110.772 9.77734C110.772 9.46745 110.839 9.1735 110.971 8.89551C111.107 8.61751 111.303 8.37142 111.559 8.15723C111.818 7.94303 112.133 7.77441 112.502 7.65137C112.876 7.52832 113.299 7.4668 113.773 7.4668C114.425 7.4668 114.988 7.56934 115.462 7.77441C115.936 7.97493 116.3 8.25749 116.556 8.62207C116.811 8.9821 116.938 9.39453 116.938 9.85938H114.806C114.806 9.66797 114.769 9.50163 114.696 9.36035C114.623 9.21908 114.512 9.1097 114.361 9.03223C114.211 8.9502 114.013 8.90918 113.767 8.90918C113.575 8.90918 113.407 8.94336 113.261 9.01172C113.119 9.07552 113.008 9.16439 112.926 9.27832C112.848 9.39225 112.81 9.52441 112.81 9.6748C112.81 9.77962 112.832 9.87533 112.878 9.96191C112.928 10.0439 113.003 10.1214 113.104 10.1943C113.208 10.2627 113.343 10.3242 113.507 10.3789C113.675 10.4336 113.881 10.486 114.122 10.5361C114.637 10.6318 115.106 10.7663 115.53 10.9395C115.959 11.1126 116.3 11.3519 116.556 11.6572C116.815 11.9626 116.945 12.3659 116.945 12.8672C116.945 13.1953 116.87 13.4961 116.72 13.7695C116.574 14.043 116.362 14.2822 116.084 14.4873C115.806 14.6924 115.473 14.8519 115.086 14.9658C114.699 15.0798 114.261 15.1367 113.773 15.1367C113.076 15.1367 112.486 15.0114 112.003 14.7607C111.52 14.5101 111.155 14.1956 110.909 13.8174C110.668 13.4346 110.547 13.0426 110.547 12.6416H112.55C112.559 12.8877 112.62 13.0882 112.734 13.2432C112.853 13.3981 113.006 13.512 113.192 13.585C113.379 13.6533 113.589 13.6875 113.821 13.6875C114.054 13.6875 114.247 13.6556 114.402 13.5918C114.557 13.528 114.676 13.4414 114.758 13.332C114.84 13.2181 114.881 13.0882 114.881 12.9424ZM120.384 7.60352V15H118.244V7.60352H120.384ZM118.114 5.68945C118.114 5.37956 118.224 5.12663 118.442 4.93066C118.661 4.73014 118.948 4.62988 119.304 4.62988C119.659 4.62988 119.946 4.73014 120.165 4.93066C120.388 5.12663 120.5 5.37956 120.5 5.68945C120.5 5.99479 120.388 6.24772 120.165 6.44824C119.946 6.64421 119.659 6.74219 119.304 6.74219C118.948 6.74219 118.661 6.64421 118.442 6.44824C118.224 6.24772 118.114 5.99479 118.114 5.68945ZM124.171 4.5V15H122.031V4.5H124.171ZM129.927 5.04688L126.406 15.8545H124.854L128.375 5.04688H129.927ZM135.108 10.9121L130.843 9.42871V7.45996L136.831 9.94141V11.3838L135.108 10.9121ZM130.843 12.1494L135.115 10.625L136.831 10.1943V11.6299L130.843 14.1113V12.1494Z" fill="#F7DD43"/>
<path d="M58.2129 47.9248H62.5928C62.5049 49.3604 62.1094 50.6348 61.4062 51.748C60.7129 52.8613 59.7412 53.7305 58.4912 54.3555C57.251 54.9805 55.7568 55.293 54.0088 55.293C52.6416 55.293 51.416 55.0586 50.332 54.5898C49.248 54.1113 48.3203 53.4277 47.5488 52.5391C46.7871 51.6504 46.2061 50.5762 45.8057 49.3164C45.4053 48.0566 45.2051 46.6455 45.2051 45.083V43.6035C45.2051 42.041 45.4102 40.6299 45.8203 39.3701C46.2402 38.1006 46.8359 37.0215 47.6074 36.1328C48.3887 35.2441 49.3213 34.5605 50.4053 34.082C51.4893 33.6035 52.7002 33.3643 54.0381 33.3643C55.8154 33.3643 57.3145 33.6865 58.5352 34.3311C59.7656 34.9756 60.7178 35.8643 61.3916 36.9971C62.0752 38.1299 62.4854 39.4189 62.6221 40.8643H58.2275C58.1787 40.0049 58.0078 39.2773 57.7148 38.6816C57.4219 38.0762 56.9775 37.6221 56.3818 37.3193C55.7959 37.0068 55.0146 36.8506 54.0381 36.8506C53.3057 36.8506 52.666 36.9873 52.1191 37.2607C51.5723 37.5342 51.1133 37.9492 50.7422 38.5059C50.3711 39.0625 50.0928 39.7656 49.9072 40.6152C49.7314 41.4551 49.6436 42.4414 49.6436 43.5742V45.083C49.6436 46.1865 49.7266 47.1582 49.8926 47.998C50.0586 48.8281 50.3125 49.5312 50.6543 50.1074C51.0059 50.6738 51.4551 51.1035 52.002 51.3965C52.5586 51.6797 53.2275 51.8213 54.0088 51.8213C54.9268 51.8213 55.6836 51.6748 56.2793 51.3818C56.875 51.0889 57.3291 50.6543 57.6416 50.0781C57.9639 49.502 58.1543 48.7842 58.2129 47.9248ZM74.1504 37.3193L68.3496 55H63.6768L71.6016 33.6719H74.5752L74.1504 37.3193ZM78.9697 55L73.1543 37.3193L72.6855 33.6719H75.6885L83.6572 55H78.9697ZM78.7061 47.0605V50.5029H67.4414V47.0605H78.7061ZM99.3457 51.5723V55H88.6084V51.5723H99.3457ZM90.0293 33.6719V55H85.6348V33.6719H90.0293ZM116.177 51.5723V55H104.824V51.5723H116.177ZM106.26 33.6719V55H101.865V33.6719H106.26ZM114.697 42.3584V45.6982H104.824V42.3584H114.697ZM116.162 33.6719V37.1143H104.824V33.6719H116.162ZM136.099 33.6719V55H131.704L123.135 40.7031V55H118.74V33.6719H123.135L131.719 47.9834V33.6719H136.099ZM146.47 55H141.826L141.855 51.5723H146.47C147.622 51.5723 148.594 51.3135 149.385 50.7959C150.176 50.2686 150.771 49.502 151.172 48.4961C151.582 47.4902 151.787 46.2744 151.787 44.8486V43.8086C151.787 42.7148 151.67 41.7529 151.436 40.9229C151.211 40.0928 150.874 39.3945 150.425 38.8281C149.976 38.2617 149.424 37.8369 148.77 37.5537C148.115 37.2607 147.363 37.1143 146.514 37.1143H141.738V33.6719H146.514C147.939 33.6719 149.243 33.916 150.425 34.4043C151.616 34.8828 152.646 35.5713 153.516 36.4697C154.385 37.3682 155.054 38.4424 155.522 39.6924C156.001 40.9326 156.24 42.3145 156.24 43.8379V44.8486C156.24 46.3623 156.001 47.7441 155.522 48.9941C155.054 50.2441 154.385 51.3184 153.516 52.2168C152.656 53.1055 151.626 53.7939 150.425 54.2822C149.233 54.7607 147.915 55 146.47 55ZM144.316 33.6719V55H139.922V33.6719H144.316ZM167.783 37.3193L161.982 55H157.31L165.234 33.6719H168.208L167.783 37.3193ZM172.603 55L166.787 37.3193L166.318 33.6719H169.321L177.29 55H172.603ZM172.339 47.0605V50.5029H161.074V47.0605H172.339ZM165.308 32.4707L168.179 27.959H172.764L168.735 32.4707H165.308ZM179.268 33.6719H187.222C188.853 33.6719 190.254 33.916 191.426 34.4043C192.607 34.8926 193.516 35.6152 194.15 36.5723C194.785 37.5293 195.103 38.7061 195.103 40.1025C195.103 41.2451 194.907 42.2266 194.517 43.0469C194.136 43.8574 193.594 44.5361 192.891 45.083C192.197 45.6201 191.382 46.0498 190.444 46.3721L189.053 47.1045H182.139L182.109 43.6768H187.251C188.022 43.6768 188.662 43.54 189.17 43.2666C189.678 42.9932 190.059 42.6123 190.312 42.124C190.576 41.6357 190.708 41.0693 190.708 40.4248C190.708 39.7412 190.581 39.1504 190.327 38.6523C190.073 38.1543 189.688 37.7734 189.17 37.5098C188.652 37.2461 188.003 37.1143 187.222 37.1143H183.662V55H179.268V33.6719ZM191.191 55L186.328 45.4932L190.972 45.4639L195.894 54.7949V55H191.191ZM203.159 33.6719V55H198.779V33.6719H203.159ZM224.795 43.8379V44.8486C224.795 46.4697 224.575 47.9248 224.136 49.2139C223.696 50.5029 223.076 51.6016 222.275 52.5098C221.475 53.4082 220.518 54.0967 219.404 54.5752C218.301 55.0537 217.075 55.293 215.728 55.293C214.39 55.293 213.164 55.0537 212.051 54.5752C210.947 54.0967 209.99 53.4082 209.18 52.5098C208.369 51.6016 207.739 50.5029 207.29 49.2139C206.851 47.9248 206.631 46.4697 206.631 44.8486V43.8379C206.631 42.207 206.851 40.752 207.29 39.4727C207.729 38.1836 208.35 37.085 209.15 36.1768C209.961 35.2686 210.918 34.5752 212.021 34.0967C213.135 33.6182 214.36 33.3789 215.698 33.3789C217.046 33.3789 218.271 33.6182 219.375 34.0967C220.488 34.5752 221.445 35.2686 222.246 36.1768C223.057 37.085 223.682 38.1836 224.121 39.4727C224.57 40.752 224.795 42.207 224.795 43.8379ZM220.356 44.8486V43.8086C220.356 42.6758 220.254 41.6797 220.049 40.8203C219.844 39.9609 219.541 39.2383 219.141 38.6523C218.74 38.0664 218.252 37.627 217.676 37.334C217.1 37.0312 216.44 36.8799 215.698 36.8799C214.956 36.8799 214.297 37.0312 213.721 37.334C213.154 37.627 212.671 38.0664 212.271 38.6523C211.88 39.2383 211.582 39.9609 211.377 40.8203C211.172 41.6797 211.069 42.6758 211.069 43.8086V44.8486C211.069 45.9717 211.172 46.9678 211.377 47.8369C211.582 48.6963 211.885 49.4238 212.285 50.0195C212.686 50.6055 213.174 51.0498 213.75 51.3525C214.326 51.6553 214.985 51.8066 215.728 51.8066C216.47 51.8066 217.129 51.6553 217.705 51.3525C218.281 51.0498 218.765 50.6055 219.155 50.0195C219.546 49.4238 219.844 48.6963 220.049 47.8369C220.254 46.9678 220.356 45.9717 220.356 44.8486Z" fill="url(#paint0_linear_175_1821)"/>
<defs>
<linearGradient id="paint0_linear_175_1821" x1="135" y1="26" x2="135" y2="64" gradientUnits="userSpaceOnUse">
<stop stop-color="white"/>
<stop offset="1" stop-color="#D9D9D9" stop-opacity="0.8"/>
</linearGradient>
</defs>
</svg>
